<svg id="Layer_1" data-name="Layer 1" xmlns="http://www.w3.org/2000/svg" viewBox="0 0 356.71 226.83"><defs><style>.cls-1{fill:#bcbec0;}.cls-2{fill:#231f20;}</style></defs><title>Artboard 1</title><path class="cls-1" d="M171.55,161.56c6.07-15.89,13.14-34.91,20-53.9s13.21-38.61,19.14-58.89h19.12q8.88,30.42,19.36,58.89T268.73,160q3.63-12.72,7.28-27.92t7.18-31.88q3.53-16.68,6.94-34.5t6.61-35.52h22.54q-8.19,45.39-17.42,84T280.8,187.44H258.71q-10-24.51-19.59-50.39T220,80.77q-9.57,30.42-19.36,56.28t-19.58,50.39Z"/><path class="cls-2" d="M156.83,187.44q-3.9-10.22-7.33-20.09t-7.1-20.08H70.46L56,187.44H32.89q9.16-25,17.19-46.19T65.77,101Q73.44,81.91,81,64.55T96.81,30.16H117.2q8.25,17,15.81,34.39T148.24,101q7.68,19.07,15.69,40.28t17.19,46.19ZM136,129.11q-7.32-19.74-14.54-38.24t-15-35.52q-8,17-15.23,35.52T76.88,129.11Z"/></svg>