<?xml version="1.0" encoding="utf-8"?>
<!-- Generator: Adobe Illustrator 22.1.0, SVG Export Plug-In . SVG Version: 6.00 Build 0)  -->
<svg version="1.1" id="Layer_1" xmlns="http://www.w3.org/2000/svg" xmlns:xlink="http://www.w3.org/1999/xlink" x="0px" y="0px"
	 viewBox="0 0 128 128" style="enable-background:new 0 0 128 128;" xml:space="preserve">
<style type="text/css">
	.st0{fill:none;stroke:#E48C15;stroke-miterlimit:10;}
	.st1{fill:none;stroke:#FAC036;stroke-miterlimit:10;}
	.st2{fill:none;stroke:#444444;stroke-width:4;stroke-linecap:round;stroke-miterlimit:10;}
</style>
<path class="st0" d="M82.5,92.3l-1.5-2.9l-1-2.6l-1.1-4.4l-0.4-5l0.3-4.5l1.4-5.6l1.7-4.4l2.5-4.3l2.3-2.7"/>
<g>
	<path class="st1" d="M39.1,79.6l-1.5,0.3l-0.7-0.5l-2.4-2.5l-3-3.1l-4-4.2l-0.7-0.7l-3-3.2l-3.3-3.5l-3.2-3.2l-3.7-1.6l-5.2,2.1
		l-2,3.8L8.9,70l3.3,3.5l2.9,3.1l2.8,3l4.2,4.5l2.2,2.3l2.4,2.5l4.8,5.1l3.1,3.3l3.1,3.2l2.6,2.7l1.7,1.6l2.8,2.6l3.2,2.9l3,2.7
		l3.1,2.6l3.9,3l3.7,2.5l3.6,2l4.1,1.8L74,126l5.1,0.5l5.3-0.5l5.2-1.4l4.9-2.3l4.5-2.9l1.1-0.8l1-0.8l1-0.8l1-0.8l2-1.7l1.9-1.8
		l3.5-3.7l3.1-3.9l2.7-4l2.2-4.1l1.7-4.1l1.1-4l0.6-3.8l0.1-3.4l-0.3-3l-0.5-2.5l-0.6-1.9l-0.6-1.4l-0.4-0.8l-0.1-0.3l0,0l0,0
		l-0.7-1.9l-0.6-1.7l-1.8-4.9l-1.9-5.3l-0.6-1.7l-0.2-0.5l0,0l0,0l-1.7-4.7l-2.8-7.5l-2.3-6.1l-1.7-4.4l-1.5-4l-2.4-2.3l-3.4,0.6
		l-3.8,3.7l-2.3,4.3l-0.7,4.6l0.9,5.2l1.6,4.3l1.2,3.4l1.4,3.9l1.4,3.8l-0.6,2.3l-2.3,0.2l-4.7-4.3l-4.2-4.1l-5.4-5.6l-4.5-4.5
		l-6-6.1l-5.7-5.8l-3-3l-5.7-5.8l-5.6-5.6l-5.4-3.2L39,15.7l-2.9,4.4l1.9,5.7l3.9,4.2l3.4,3.6l5.9,6.2l3.8,4l4.8,5.1l3.9,4.2
		l0.2,2.2l-2.1,0l-3-3.1l-4.5-4.7l-4.4-4.6L46.2,39l-3.3-3.5l-3.9-4.1l-2.4-2.6L32.8,25l-3.3-3.4l-5.7-3l-5.5,1.7l-2.1,5.1l2.5,5.7
		l3,3.1l3.9,4.1l2.8,3l3.2,3.3l2.7,2.8l3.5,3.7l2.6,2.8l3.8,4.1l3.1,3.3l2.9,3.1l0.6,1.1l-0.5,1.2L49.7,67l-1.4-0.6l-3.2-3.4
		l-2.7-2.9l-3.7-3.9l-4.4-4.6L31.5,49l-3-3.2l-3.9-4.1L21,38.1l-1.9-1.6L15.9,35l-5.2,1.5l-2.4,5.2l2.4,5.6l2.2,2.3l3.8,4.1l3.8,4
		l3.1,3.3l1.4,1.5l1.9,2.1l3.1,3.3l2.7,2.8l2.5,2.6l2.5,2.7l1.6,1.6l0.3,0.7L39.1,79.6L39.1,79.6z"/>
</g>
<path class="st2" d="M63.3,10.2l2.1,0.6l3.1,1.4l3.2,2.1l2.8,2.6L77,20l2,3.1l2.3,4.4l1,2.5"/>
<path class="st2" d="M77.4,3.5l1.9,1.2l1.7,1.4l2.3,2.3l2.7,3.6l1.3,2.3l1.1,2.4l1.1,3.2l0.8,3l0.4,2.2"/>
<path class="st2" d="M35.7,110.7l-4.2-0.5l-2.9-0.9l-2.7-1.2l-2.6-1.6l-1.6-1.2l-2.1-1.8l-2-2l-1.3-1.5l-1.4-1.7l-2.1-3"/>
<path class="st2" d="M31.5,120.6l-3.5-0.3l-2.8-0.6l-2.2-0.8l-3.2-1.5l-1.6-0.9l-2-1.4l-2.2-1.8l-2.7-2.7l-1.9-2.2"/>
</svg>
