<?xml version="1.0" standalone="no"?>
<!DOCTYPE svg PUBLIC "-//W3C//DTD SVG 20010904//EN"
 "http://www.w3.org/TR/2001/REC-SVG-20010904/DTD/svg10.dtd">
<svg version="1.0" xmlns="http://www.w3.org/2000/svg"
 width="357.000000pt" height="357.000000pt" viewBox="0 0 357.000000 357.000000"
 preserveAspectRatio="xMidYMid meet">
<metadata>
Created by potrace 1.11, written by Peter Selinger 2001-2013
</metadata>
<g transform="translate(0.000000,357.000000) scale(0.100000,-0.100000)"
fill="#000000" stroke="none">
<path d="M980 2623 c-29 -6 -251 -515 -439 -1008 -23 -60 -46 -119 -51 -130
-5 -11 -40 -105 -78 -210 -39 -104 -73 -198 -77 -207 -7 -17 3 -18 111 -18
l119 0 70 196 c38 108 74 198 79 201 15 10 710 7 713 -3 2 -5 34 -94 72 -199
l68 -190 124 -3 124 -2 69 177 c38 98 75 192 82 208 26 63 89 238 160 443 40
118 75 216 78 219 2 3 10 -14 16 -38 34 -127 224 -653 328 -909 l38 -95 112
-3 112 -3 11 28 c51 135 224 763 243 887 4 21 8 42 11 46 2 3 6 20 9 36 3 16
14 72 25 124 11 52 22 106 25 120 2 14 9 48 15 75 7 28 20 97 29 155 l18 106
-113 -1 c-62 0 -113 -2 -114 -5 0 -3 -2 -12 -4 -20 -6 -29 -14 -69 -30 -160
-2 -8 -13 -64 -24 -125 -12 -60 -24 -126 -27 -145 -3 -19 -9 -51 -14 -70 -5
-19 -12 -48 -14 -65 -9 -48 -14 -74 -36 -175 -32 -147 -120 -502 -127 -513 -3
-5 -11 6 -18 24 -7 19 -56 151 -110 294 -84 225 -222 626 -251 735 l-10 35
-97 3 c-73 2 -98 -1 -101 -10 -3 -7 -35 -107 -71 -223 -61 -189 -181 -539
-204 -590 -14 -32 -81 -210 -81 -217 0 -3 -7 -23 -16 -44 l-16 -38 -35 95
c-98 266 -291 746 -363 904 -10 22 -33 73 -52 114 -18 41 -46 102 -63 135
l-30 61 -90 0 c-49 0 -97 -1 -105 -2z m121 -330 c53 -117 243 -605 251 -642 3
-13 -40 -15 -284 -16 -179 0 -288 3 -288 9 0 17 128 357 183 486 6 14 11 27
11 30 2 12 89 200 93 200 2 0 18 -30 34 -67z"/>
</g>
</svg>
